<?xml version="1.0" standalone="no"?>
<!DOCTYPE svg PUBLIC "-//W3C//DTD SVG 20010904//EN"
 "http://www.w3.org/TR/2001/REC-SVG-20010904/DTD/svg10.dtd">
<svg version="1.0" xmlns="http://www.w3.org/2000/svg"
 width="929.000000pt" height="1280.000000pt" viewBox="0 0 929.000000 1280.000000"
 preserveAspectRatio="xMidYMid meet">
<metadata>
Created by potrace 1.15, written by Peter Selinger 2001-2017
</metadata>
<g transform="translate(0.000000,1280.000000) scale(0.100000,-0.100000)"
fill="#f1c40f" stroke="none">
<path d="M7911 12780 c-192 -71 -390 -249 -704 -635 -275 -336 -328 -365 -523
-277 -168 75 -295 102 -478 102 -146 0 -273 -18 -531 -76 -460 -104 -680 -143
-698 -125 -6 6 -6 20 1 39 10 29 9 29 -171 -57 -164 -78 -188 -93 -261 -162
-109 -101 -234 -209 -244 -209 -4 0 -30 19 -57 42 -64 52 -163 117 -242 156
-34 18 -130 72 -215 122 -232 138 -353 191 -502 220 -78 16 -215 17 -242 2
-26 -14 -110 -119 -147 -182 -43 -75 -75 -187 -96 -340 -11 -80 -30 -197 -42
-260 -29 -150 -31 -411 -6 -545 56 -298 181 -637 380 -1029 l91 -181 1 -300
c1 -330 5 -360 63 -550 60 -194 49 -278 -55 -439 -25 -39 -79 -105 -120 -147
l-74 -76 48 -13 c26 -7 56 -14 66 -17 18 -5 18 -6 1 -24 -10 -11 -59 -54 -110
-96 -51 -42 -95 -82 -98 -89 -2 -6 4 -40 15 -74 10 -34 19 -67 19 -73 0 -7
-16 -23 -34 -37 -54 -40 -73 -78 -102 -198 -36 -156 -72 -222 -285 -522 -99
-140 -202 -293 -227 -340 -38 -68 -76 -114 -198 -240 -84 -86 -192 -211 -244
-280 -167 -226 -546 -807 -871 -1337 l-124 -203 -23 28 c-43 51 -93 163 -116
264 -14 55 -31 107 -39 115 -21 21 -52 8 -77 -33 -12 -18 -25 -34 -29 -34 -4
0 -24 17 -44 38 -27 27 -45 61 -66 125 -44 129 -84 186 -109 154 -5 -7 -15
-29 -22 -50 -6 -20 -34 -63 -60 -94 -97 -113 -194 -315 -237 -492 -18 -71 -33
-112 -47 -125 -19 -16 -21 -29 -20 -110 1 -137 51 -314 141 -501 l38 -80 1
-235 c0 -144 5 -253 12 -280 6 -25 12 -75 12 -112 0 -141 48 -418 104 -605
110 -366 279 -668 521 -933 48 -52 114 -133 148 -180 147 -206 158 -216 344
-309 251 -125 348 -142 570 -97 250 51 531 57 693 15 65 -17 84 -18 157 -8 78
10 87 9 158 -15 41 -14 97 -26 123 -26 63 0 179 -29 342 -86 l135 -47 136 6
c150 7 266 23 493 67 441 85 581 90 838 26 l97 -24 108 19 c59 10 120 19 135
19 36 0 105 62 129 115 27 58 23 105 -16 246 -19 68 -35 129 -34 134 0 6 17
-37 38 -95 82 -225 185 -429 329 -650 90 -139 140 -205 251 -333 134 -156 156
-165 306 -126 51 13 128 23 210 26 173 8 171 8 242 -1 l61 -8 16 30 c9 17 16
43 16 58 0 23 3 25 26 20 60 -15 163 62 199 148 19 46 32 434 16 493 -14 51
-44 78 -159 139 -48 26 -106 61 -129 77 -49 34 -137 140 -157 188 -18 44 -52
250 -66 409 -6 69 -15 142 -20 163 -8 36 -7 38 43 80 28 23 85 77 128 120 43
42 93 84 112 92 28 12 38 24 56 73 12 32 31 74 43 93 l20 33 24 -29 c21 -26
24 -27 24 -10 0 81 50 148 148 196 37 19 84 49 104 67 32 29 42 33 69 27 27
-6 35 -17 63 -79 139 -304 205 -563 243 -939 21 -205 20 -303 -1 -416 -26
-136 -23 -154 31 -212 25 -27 72 -65 103 -84 46 -28 63 -45 83 -88 83 -173
187 -224 366 -178 l83 21 47 -41 c74 -66 135 -93 211 -94 90 0 158 34 252 129
46 46 87 78 110 85 21 7 49 26 63 42 32 38 59 131 52 179 -5 36 -97 347 -177
595 -52 161 -72 273 -126 710 l-46 370 5 245 c6 274 19 396 102 985 97 683
110 737 185 806 23 21 42 50 49 75 17 64 29 210 41 484 11 281 14 300 94 592
94 348 123 533 113 728 -8 135 -30 236 -87 386 -47 122 -71 225 -94 394 -41
297 -74 420 -224 840 -19 51 -35 123 -41 180 -15 134 -45 244 -87 314 -33 56
-35 63 -25 100 6 23 22 122 36 221 40 279 75 470 105 580 15 55 31 118 35 141
9 57 -11 126 -51 173 -37 43 -32 20 -79 361 -31 226 -91 389 -180 488 l-47 52
41 137 c57 188 71 279 71 455 0 472 -145 1033 -344 1332 -127 191 -262 260
-405 206z m175 -296 c110 -52 223 -286 288 -591 97 -458 82 -926 -33 -1055
l-26 -30 -26 21 c-15 11 -68 75 -118 142 -85 113 -91 124 -91 168 0 59 14 103
51 159 16 23 25 42 21 42 -4 0 -41 -9 -82 -20 -41 -11 -78 -20 -82 -20 -4 0
23 51 61 114 38 62 75 124 82 137 15 28 16 30 -100 -69 -41 -34 -75 -61 -77
-60 -1 2 8 97 21 213 13 115 22 211 20 213 -1 2 -27 -68 -56 -155 -57 -172
-59 -173 -74 -41 -4 35 -10 68 -14 75 -3 7 -26 -39 -51 -102 -25 -63 -48 -115
-51 -115 -3 0 -12 33 -19 73 -21 118 -23 119 -55 31 -47 -132 -46 -130 -118
-143 -128 -22 -253 -7 -308 38 -21 17 -23 26 -23 133 -1 134 -11 112 177 383
148 212 252 317 361 365 44 19 113 52 155 72 85 41 118 45 167 22z m-4764
-915 c215 -58 643 -324 843 -524 l60 -60 -32 -3 c-89 -9 -132 -155 -104 -352
5 -30 7 -56 6 -58 -1 -2 -19 20 -40 48 -20 27 -41 50 -45 50 -5 0 -12 -21 -16
-46 -8 -56 -15 -46 -39 56 -10 41 -21 78 -24 83 -4 4 -20 -29 -35 -73 -16 -44
-31 -80 -35 -80 -3 0 -31 44 -61 98 l-55 97 -9 -82 -9 -82 -123 109 c-68 61
-125 110 -128 110 -2 0 20 -54 50 -120 30 -66 54 -122 54 -125 0 -3 -35 -3
-77 1 -43 4 -75 4 -72 0 4 -4 30 -25 59 -46 l53 -39 -27 -11 c-15 -5 -34 -10
-42 -10 -19 0 -18 -9 11 -86 28 -74 45 -196 45 -323 0 -75 -4 -91 -34 -155
-19 -39 -49 -88 -68 -109 l-33 -39 -81 124 c-103 155 -151 244 -208 385 -150
367 -165 751 -45 1193 11 41 28 81 37 88 22 18 117 10 224 -19z m3726 -1287
l44 3 41 -100 c31 -77 41 -117 45 -175 4 -74 3 -77 -53 -200 -76 -168 -115
-237 -171 -299 -56 -63 -89 -81 -146 -81 -52 0 -89 21 -161 93 -56 56 -67 81
-84 203 -7 53 13 171 44 259 30 82 102 230 130 264 17 21 22 22 43 11 21 -11
26 -10 39 11 9 13 26 35 38 49 l23 25 6 -22 c8 -29 12 -29 54 1 l35 24 14 -35
c14 -33 16 -34 59 -31z m-1844 -277 c25 -11 52 -13 88 -9 44 5 65 1 118 -20
193 -78 250 -169 250 -401 -1 -160 -28 -250 -89 -288 -105 -65 -429 15 -561
139 -74 69 -150 176 -150 210 0 16 9 80 21 142 l21 113 29 -6 c26 -6 29 -4 29
18 0 44 10 57 45 57 25 0 34 5 38 21 4 16 11 20 24 15 48 -19 71 -18 85 3 7
12 13 21 14 21 1 0 18 -7 38 -15z m3333 -137 c33 -37 69 -117 118 -262 56
-167 58 -215 14 -336 -55 -153 -60 -174 -68 -290 -7 -100 -13 -127 -45 -205
-30 -71 -37 -97 -32 -130 20 -138 20 -136 -34 -352 -58 -231 -55 -222 -187
-452 -105 -182 -164 -297 -182 -352 -13 -40 -158 -191 -189 -197 -9 -2 -37
-25 -62 -52 -35 -37 -71 -60 -160 -101 l-115 -54 -120 0 c-132 0 -194 14 -351
82 l-82 34 -6 47 c-4 26 -8 56 -9 66 -2 15 14 24 86 48 74 25 98 39 148 86 99
92 104 107 101 307 -3 195 -15 237 -83 282 -47 31 -89 41 -211 49 l-96 7 21
28 c16 22 22 48 25 111 4 75 0 94 -32 190 -20 59 -36 120 -36 135 0 15 -18 69
-39 118 -22 50 -37 92 -35 94 5 6 164 -59 221 -91 28 -16 77 -37 109 -48 85
-30 141 -66 221 -143 118 -114 208 -266 252 -427 26 -92 28 -227 6 -271 -12
-22 -13 -34 -5 -50 16 -28 31 -20 58 31 27 53 29 140 8 272 -24 144 -70 226
-252 444 -93 112 -115 144 -99 144 3 0 46 -14 97 -31 104 -34 222 -48 423 -49
91 0 155 -6 215 -20 93 -21 156 -25 165 -10 3 5 -6 32 -20 59 -13 27 -26 65
-27 83 -3 26 2 35 24 45 l27 13 -28 63 c-30 66 -54 158 -71 269 -8 55 -40 379
-40 412 0 6 14 -12 32 -40 l31 -49 18 74 c23 89 72 194 138 293 49 72 115 148
130 148 4 0 17 -10 28 -22z m-1152 -237 c14 -6 0 -9 -45 -13 -141 -11 -238
-87 -280 -217 -31 -97 -26 -183 14 -236 23 -30 25 -35 9 -26 -26 14 -80 74
-87 99 -4 11 -20 25 -37 32 l-29 13 29 52 c50 88 139 222 163 245 42 41 98 60
173 59 39 0 79 -4 90 -8z m276 -76 c68 -24 76 -24 115 -11 l42 14 6 -30 c3
-16 1 -39 -6 -51 -6 -12 -17 -55 -24 -96 -25 -146 -96 -246 -213 -299 -45 -21
-74 -26 -146 -28 l-90 -3 74 10 c88 11 182 51 230 100 114 114 90 290 -54 396
-39 29 -25 29 66 -2z m-301 -120 c33 -17 70 -61 70 -83 0 -9 -10 -31 -22 -49
-19 -27 -30 -33 -59 -33 -90 0 -141 49 -119 116 20 60 71 79 130 49z m-2045
-231 c39 -14 98 -35 133 -45 51 -16 68 -28 92 -60 l29 -41 -34 -30 c-22 -18
-39 -46 -46 -71 -37 -137 -52 -178 -79 -216 -18 -24 -33 -41 -35 -39 -3 2 6
31 20 63 13 33 31 96 40 140 21 102 14 159 -25 195 -36 34 -140 89 -210 111
l-55 18 50 0 c30 0 79 -10 120 -25z m-476 -135 c-45 -89 -44 -201 2 -309 16
-37 33 -57 70 -80 70 -45 143 -71 224 -78 52 -4 63 -8 45 -13 -86 -24 -220 6
-318 71 -61 41 -122 117 -122 152 0 11 -11 23 -27 29 -16 6 -36 17 -45 26 -16
14 -14 19 35 76 67 78 149 167 154 167 2 0 -6 -18 -18 -41z m356 -73 c35 -35
43 -91 18 -124 -32 -42 -78 -66 -103 -52 -31 17 -60 70 -60 110 0 43 7 55 45
74 42 22 72 20 100 -8z m-1235 -341 c122 -32 269 -137 313 -221 33 -63 50
-201 52 -409 3 -304 -1 -301 295 -263 264 33 512 150 710 335 l46 42 -17 -85
c-24 -119 -42 -334 -34 -407 9 -73 36 -156 66 -200 60 -87 129 -135 129 -89 0
10 -12 52 -26 92 -102 294 -92 627 24 778 81 105 132 187 132 211 1 17 27 58
72 116 l72 89 8 -29 c4 -17 15 -79 24 -140 19 -125 15 -251 -11 -381 -16 -79
-16 -82 4 -122 37 -73 101 -150 130 -157 39 -8 112 17 196 70 73 45 75 46 104
30 45 -23 58 -19 115 35 l53 50 83 0 82 0 -78 -40 c-91 -45 -212 -138 -251
-192 -25 -37 -26 -40 -14 -95 21 -95 64 -172 148 -264 43 -48 87 -98 99 -112
26 -32 106 -49 229 -51 72 -1 96 3 119 17 15 10 31 16 34 12 4 -4 7 -43 7 -87
l0 -80 -40 -35 c-51 -44 -192 -130 -259 -157 -44 -18 -71 -21 -206 -20 -169 0
-268 17 -392 70 -71 30 -171 43 -183 25 -20 -33 115 -108 263 -145 222 -56
407 -56 586 1 103 32 149 56 264 136 l94 65 61 -15 c229 -54 396 -61 542 -25
44 11 81 20 82 19 3 -4 -260 -242 -326 -295 -110 -88 -159 -107 -431 -164
l-245 -51 -390 -4 c-332 -4 -401 -2 -459 11 -86 20 -176 67 -291 153 -77 57
-125 82 -330 168 -132 56 -262 107 -290 114 -42 10 -63 25 -135 96 -72 72 -92
86 -134 95 -26 6 -62 18 -80 27 -49 25 -284 223 -357 300 -69 73 -76 88 -123
243 -14 47 -36 101 -48 120 l-23 35 -5 -45 -5 -44 -78 89 c-42 48 -80 100 -83
114 -4 14 -39 60 -79 101 -71 75 -124 148 -145 205 -9 23 -40 167 -40 184 0 2
8 -3 18 -11 40 -35 41 -33 39 71 -2 86 0 102 18 121 19 22 25 22 130 16 61 -3
135 -13 165 -21z m2784 -571 c15 -14 27 -26 25 -28 -2 -1 -31 -10 -64 -19 -33
-8 -69 -19 -80 -23 -11 -4 -1 7 22 24 23 17 44 40 48 51 8 27 14 26 49 -5z
m444 -282 c-3 -27 -21 -91 -41 -143 -20 -52 -39 -107 -42 -122 -3 -16 -18 -41
-32 -55 l-27 -27 -7 25 c-12 43 -10 109 7 183 21 93 47 143 87 167 51 32 60
27 55 -28z m-624 -185 c41 -22 71 -47 95 -81 20 -27 57 -70 83 -96 34 -34 44
-50 37 -61 -12 -20 -87 21 -139 77 -22 24 -65 62 -97 85 -70 52 -123 100 -123
112 0 16 85 -5 144 -36z m1616 -936 c36 -69 -18 -297 -137 -571 -108 -249
-155 -321 -337 -519 -171 -187 -195 -208 -252 -222 -31 -8 -57 -24 -82 -50
-38 -42 -65 -48 -94 -22 -26 23 -23 59 17 180 34 101 153 353 198 417 25 36
100 84 144 92 41 8 73 43 165 183 38 58 87 124 108 146 24 25 51 73 74 129 49
118 94 206 119 234 25 27 63 29 77 3z m-3492 -273 c84 -47 105 -64 175 -146
44 -51 92 -99 108 -108 28 -14 29 -14 29 11 0 24 31 65 49 65 16 0 61 -42 92
-86 30 -44 31 -45 55 -30 38 25 63 19 103 -24 20 -22 40 -40 44 -40 4 0 21 9
36 21 45 33 71 22 112 -46 l36 -60 79 -7 c51 -4 102 -16 144 -33 35 -15 89
-29 120 -31 78 -7 113 -28 161 -98 24 -33 67 -84 95 -113 82 -81 132 -153 169
-244 49 -119 53 -148 25 -171 -34 -27 -74 -22 -129 17 -65 47 -110 61 -248 80
-63 9 -127 21 -140 26 -13 5 -35 9 -48 9 -58 0 -153 43 -235 106 -46 35 -89
64 -96 64 -6 0 -19 -9 -29 -20 -26 -29 -53 -25 -121 16 -196 118 -414 346
-606 634 -174 261 -169 311 20 208z m4146 -673 c0 -54 -10 -100 -42 -197 -44
-134 -51 -192 -27 -224 8 -10 15 -22 15 -25 0 -3 -28 -28 -62 -55 -137 -108
-244 -223 -220 -238 4 -2 27 4 51 15 24 10 45 19 48 19 19 0 -149 -255 -236
-357 -33 -40 -61 -75 -61 -79 0 -3 15 -3 33 1 36 8 35 6 -38 -50 -74 -57 -145
-126 -161 -157 -8 -15 -14 -43 -14 -63 0 -45 -27 -98 -85 -170 -60 -73 -64
-86 -75 -229 -6 -67 -14 -138 -19 -159 -18 -76 -61 -144 -129 -208 -37 -34
-72 -72 -79 -83 -33 -57 4 -127 123 -231 43 -39 95 -86 115 -105 l36 -35 6
-163 c8 -178 19 -224 61 -244 36 -16 84 0 176 59 71 46 79 48 156 51 73 4 83
2 108 -20 24 -21 29 -34 36 -98 4 -41 12 -91 18 -110 6 -19 16 -89 22 -155 11
-124 30 -230 99 -545 45 -206 71 -367 71 -436 0 -33 18 -91 65 -208 68 -171
105 -302 105 -376 0 -47 -35 -135 -62 -158 -20 -16 -65 -6 -78 18 -6 10 -10
50 -10 88 0 56 -4 72 -20 87 -18 17 -19 16 -24 -6 -3 -13 -7 -64 -9 -114 -4
-103 -24 -153 -82 -203 -71 -63 -153 -34 -205 72 l-31 63 20 70 c10 39 27 88
37 108 19 40 66 75 101 75 33 0 39 21 12 43 -21 17 -34 18 -92 13 -83 -8 -127
-25 -155 -61 -29 -36 -40 -78 -57 -209 -15 -121 -35 -156 -87 -156 -65 0 -184
84 -217 153 -60 124 17 267 143 267 33 0 62 -7 84 -20 38 -23 38 -22 12 31
-23 45 -72 79 -113 79 -72 0 -170 -80 -214 -176 -24 -54 -25 -54 -69 -54 -25
0 -54 5 -65 10 -51 28 -61 123 -34 305 40 260 41 218 -15 482 -83 395 -120
552 -162 688 -47 151 -58 246 -35 291 8 16 34 47 56 69 23 21 41 47 41 56 0
24 -38 67 -47 53 -74 -104 -128 -174 -138 -178 -21 -8 -35 17 -42 73 -3 28 -9
51 -13 51 -15 0 -39 -38 -71 -109 -29 -66 -34 -72 -40 -50 -4 13 -7 48 -8 77
-1 35 -5 52 -14 52 -41 0 -93 -80 -136 -213 -30 -89 -92 -171 -198 -259 -132
-111 -190 -166 -255 -245 -33 -40 -63 -73 -67 -73 -4 0 -18 19 -32 42 -23 41
-24 51 -23 198 0 117 8 211 32 380 17 124 37 278 44 343 11 107 10 119 -5 135
-43 42 -79 -46 -102 -248 -26 -235 -50 -605 -49 -775 0 -141 5 -194 27 -310
14 -77 34 -201 42 -275 38 -315 79 -404 194 -425 110 -20 254 -131 300 -230
23 -49 33 -158 17 -183 -4 -6 -37 19 -76 58 -71 70 -189 140 -236 140 -37 0
-29 -11 37 -55 77 -51 175 -155 213 -224 33 -61 45 -158 27 -212 -6 -19 -24
-49 -39 -67 l-28 -33 -34 53 c-18 29 -76 96 -129 149 -73 73 -114 104 -170
132 -80 40 -103 44 -141 22 -24 -13 -24 -14 -5 -20 122 -38 300 -216 336 -335
26 -86 -13 -114 -161 -115 -112 0 -143 19 -248 150 -80 101 -163 185 -182 185
-18 0 -11 -79 11 -123 12 -23 58 -79 103 -125 91 -93 90 -102 -4 -102 -109 0
-204 70 -259 191 -19 42 -42 75 -65 92 -93 72 -220 271 -299 472 -20 50 -52
123 -72 163 -48 97 -78 179 -109 298 -35 130 -88 237 -181 359 -156 204 -242
321 -272 372 l-32 51 37 7 c48 9 87 30 106 57 22 31 20 117 -4 185 -11 31 -18
58 -17 59 2 2 25 -38 52 -88 75 -138 157 -207 301 -256 144 -49 381 -51 444
-4 73 55 115 221 131 522 12 242 25 319 86 503 46 139 59 162 161 287 51 63
54 101 10 133 -27 20 -29 20 -63 4 -56 -27 -130 -18 -213 25 l-23 12 22 12
c20 10 16 15 -77 81 -55 38 -112 78 -127 88 -16 10 -71 72 -123 137 -233 293
-374 432 -517 512 -35 20 -128 63 -208 97 -79 33 -178 78 -219 99 -41 22 -93
42 -115 46 -38 5 -39 7 -20 21 77 57 72 50 50 67 -11 9 -57 30 -103 47 -90 35
-154 75 -172 110 -11 19 -10 20 10 14 31 -10 68 2 75 24 14 46 -50 137 -120
170 -25 12 -44 25 -41 29 11 18 -30 78 -136 194 -122 134 -173 196 -167 203 8
7 161 -59 269 -117 58 -31 115 -59 127 -63 22 -6 23 -4 17 39 -4 28 -3 46 3
46 6 0 59 -30 119 -66 60 -37 131 -80 158 -96 56 -33 162 -88 172 -88 3 0 3
19 -1 43 l-7 42 41 -46 c52 -59 174 -159 194 -159 9 0 24 12 34 28 9 15 18 29
20 31 2 3 17 -9 34 -25 l32 -29 -7 28 c-10 44 14 34 71 -30 l53 -58 0 38 c0
20 2 37 5 37 3 0 31 -13 63 -29 76 -38 135 -55 166 -47 35 9 33 29 -10 76 -20
22 -35 43 -32 45 9 9 197 -44 261 -73 105 -48 300 -186 359 -253 87 -100 138
-111 138 -30 0 38 -30 114 -49 125 -6 4 -11 11 -11 15 0 5 39 -4 88 -19 64
-20 116 -46 197 -100 61 -40 145 -90 188 -111 l78 -39 24 26 c14 15 30 45 37
68 l11 41 8 -44 c5 -24 11 -46 13 -49 11 -10 37 9 56 42 14 23 38 41 79 60 73
33 77 33 52 -3 -23 -32 -19 -41 19 -41 123 0 361 125 562 296 48 41 90 74 92
74 3 0 6 -9 8 -20 3 -17 24 -4 138 86 141 112 278 206 325 224 27 10 27 10 21
-25 -5 -26 -3 -35 7 -35 26 0 109 61 185 137 66 66 82 89 106 151 28 72 54
102 89 102 9 0 39 22 66 50 48 50 103 82 131 77 12 -2 15 -18 14 -72z m-5097
-1947 c28 -14 118 -98 256 -237 259 -264 334 -367 373 -513 7 -27 34 -78 60
-115 51 -72 133 -254 159 -353 63 -241 -9 -616 -145 -764 -65 -71 -137 -99
-413 -161 -65 -15 -117 -29 -114 -31 2 -2 66 5 143 16 188 27 216 26 400 -16
272 -60 541 -164 698 -268 130 -87 185 -163 186 -257 0 -52 -35 -131 -77 -171
l-28 -27 -1 57 c0 72 -45 168 -111 242 -55 61 -89 78 -112 56 -13 -14 -12 -21
19 -63 110 -157 120 -174 120 -214 0 -79 -54 -139 -124 -139 -51 0 -52 2 -99
73 -46 71 -163 195 -237 252 -82 63 -157 98 -212 99 -112 2 -77 -43 117 -149
140 -76 215 -136 245 -196 34 -67 30 -72 -52 -64 -40 3 -149 7 -243 8 l-170 1
-169 -52 c-93 -28 -195 -57 -228 -63 -73 -15 -202 -7 -333 19 -55 12 -168 28
-250 36 -230 24 -286 42 -375 121 -51 45 -51 45 -126 45 l-76 0 7 63 c9 82 75
192 135 226 44 25 47 35 25 88 -19 45 -19 87 -1 102 12 10 19 6 37 -18 45 -61
50 -31 19 127 -17 90 -18 107 -6 142 17 51 114 186 191 267 67 70 77 73 189
52 58 -10 59 -10 92 22 32 31 34 32 102 26 38 -4 88 -14 112 -22 55 -19 53
-20 36 14 -27 52 -1 54 136 9 85 -28 100 -31 109 -18 7 10 8 88 4 223 l-6 207
25 0 c14 0 29 -8 35 -17 16 -29 41 79 41 177 0 163 -64 336 -179 479 l-59 74
-4 96 c-3 86 -8 105 -40 173 -41 86 -91 163 -186 287 l-64 84 62 -6 c35 -4 82
-17 107 -29z"/>
</g>
</svg>
